<?xml version="1.0" encoding="UTF-8" standalone="no" ?>
<!DOCTYPE svg PUBLIC "-//W3C//DTD SVG 1.1//EN" "http://www.w3.org/Graphics/SVG/1.1/DTD/svg11.dtd">
<svg xmlns="http://www.w3.org/2000/svg" xmlns:xlink="http://www.w3.org/1999/xlink" version="1.1" width="1080" height="1080" viewBox="0 0 1080 1080" xml:space="preserve">
<desc>Created with Fabric.js 5.2.4</desc>
<defs>
</defs>
<g transform="matrix(1 0 0 1 540 540)" id="b546329a-0f9d-43c1-ac50-e9a1018038a2"  >
<rect style="stroke: none; stroke-width: 1; stroke-dasharray: none; stroke-linecap: butt; stroke-dashoffset: 0; stroke-linejoin: miter; stroke-miterlimit: 4; fill: rgb(255,255,255); fill-rule: nonzero; opacity: 1; visibility: hidden;" vector-effect="non-scaling-stroke"  x="-540" y="-540" rx="0" ry="0" width="1080" height="1080" />
</g>
<g transform="matrix(1 0 0 1 540 540)" id="fa4afc82-e002-47ed-817f-ecd8936deae3"  >
</g>
<g transform="matrix(8.71 0 0 8.71 540 540)"  >
<g style=""   >
		<g transform="matrix(1 0 0 1 -12.71 3.29)"  >
<path style="stroke: none; stroke-width: 1; stroke-dasharray: none; stroke-linecap: butt; stroke-dashoffset: 0; stroke-linejoin: miter; stroke-miterlimit: 4; fill: rgb(0,0,0); fill-rule: nonzero; opacity: 1;" vector-effect="non-scaling-stroke"  transform=" translate(-49.29, -20.29)" d="M 41.5908 30.4605 L 45.784 30.4605 L 45.784 23.0439 L 46.0122 23.0439 C 46.7254 24.7839 48.4939 25.982 50.8615 25.982 C 54.5128 25.982 56.9944 23.3006 56.9944 18.052 C 56.9944 12.7748 54.5128 10.122 50.8615 10.122 C 48.4939 10.122 46.7254 11.2915 46.0122 13.0601 L 45.784 13.0601 L 45.6414 10.4072 L 41.5908 10.4072 L 41.5908 30.4605 Z M 49.2926 22.5875 C 46.925 22.5875 45.8411 20.7334 45.8411 18.7936 L 45.8411 17.3103 C 45.8411 15.3706 46.925 13.5165 49.2926 13.5165 C 51.3465 13.5165 52.6871 14.9427 52.6871 18.052 C 52.6871 21.1612 51.3465 22.5875 49.2926 22.5875 Z" stroke-linecap="round" />
</g>
		<g transform="matrix(1 0 0 1 3.55 1.04)"  >
<path style="stroke: none; stroke-width: 1; stroke-dasharray: none; stroke-linecap: butt; stroke-dashoffset: 0; stroke-linejoin: miter; stroke-miterlimit: 4; fill: rgb(0,0,0); fill-rule: nonzero; opacity: 1;" vector-effect="non-scaling-stroke"  transform=" translate(-65.55, -18.04)" d="M 63.9711 25.9535 C 66.3387 25.9535 68.1073 24.7839 68.8204 23.0154 L 69.0486 23.0154 L 69.0486 25.6968 L 73.2418 25.6968 L 73.2418 10.4072 L 69.2197 10.4072 L 69.0486 13.0601 L 68.8204 13.0601 C 68.1073 11.2915 66.3387 10.122 63.9711 10.122 C 60.3199 10.122 57.8667 12.7748 57.8667 18.052 C 57.8667 23.3006 60.3199 25.9535 63.9711 25.9535 Z M 65.5685 22.559 C 63.5147 22.559 62.1455 21.1327 62.1455 18.052 C 62.1455 14.9427 63.5147 13.5165 65.5685 13.5165 C 67.9076 13.5165 68.9915 15.3421 68.9915 17.3103 L 68.9915 18.7651 C 68.9915 20.7334 67.9076 22.559 65.5685 22.559 Z" stroke-linecap="round" />
</g>
		<g transform="matrix(1 0 0 1 21.01 0.91)"  >
<path style="stroke: none; stroke-width: 1; stroke-dasharray: none; stroke-linecap: butt; stroke-dashoffset: 0; stroke-linejoin: miter; stroke-miterlimit: 4; fill: rgb(0,0,0); fill-rule: nonzero; opacity: 1;" vector-effect="non-scaling-stroke"  transform=" translate(-83.01, -17.91)" d="M 75.6896 25.6968 L 79.8828 25.6968 L 79.8828 17.1962 C 79.8828 15.2565 81.0809 13.545 83.2488 13.545 C 85.2741 13.545 86.1299 14.8001 86.1299 17.3674 L 86.1299 25.6968 L 90.3231 25.6968 L 90.3231 16.4546 C 90.3231 11.862 87.984 10.122 84.9318 10.122 C 82.7639 10.122 80.8812 11.1489 80.054 13.1742 L 79.8828 13.1742 L 79.7117 10.4072 L 75.6896 10.4072 L 75.6896 25.6968 Z" stroke-linecap="round" />
</g>
		<g transform="matrix(1 0 0 1 37.4 -1.57)"  >
<path style="stroke: none; stroke-width: 1; stroke-dasharray: none; stroke-linecap: butt; stroke-dashoffset: 0; stroke-linejoin: miter; stroke-miterlimit: 4; fill: rgb(0,0,0); fill-rule: nonzero; opacity: 1;" vector-effect="non-scaling-stroke"  transform=" translate(-99.4, -15.43)" d="M 97.8192 25.9535 C 100.187 25.9535 101.955 24.7839 102.668 23.0154 L 102.897 23.0154 L 103.039 25.6968 L 107.09 25.6968 L 107.09 4.90186 L 102.897 4.90186 L 102.897 13.0601 L 102.668 13.0601 C 101.955 11.2915 100.187 10.122 97.8192 10.122 C 94.168 10.122 91.7148 12.7748 91.7148 18.052 C 91.7148 23.3006 94.168 25.9535 97.8192 25.9535 Z M 99.4166 22.559 C 97.3628 22.559 95.9936 21.1327 95.9936 18.052 C 95.9936 14.9427 97.3628 13.5165 99.4166 13.5165 C 101.756 13.5165 102.84 15.3421 102.84 17.3103 L 102.84 18.7651 C 102.84 20.7334 101.756 22.559 99.4166 22.559 Z" stroke-linecap="round" />
</g>
		<g transform="matrix(1 0 0 1 54.31 1.04)"  >
<path style="stroke: none; stroke-width: 1; stroke-dasharray: none; stroke-linecap: butt; stroke-dashoffset: 0; stroke-linejoin: miter; stroke-miterlimit: 4; fill: rgb(0,0,0); fill-rule: nonzero; opacity: 1;" vector-effect="non-scaling-stroke"  transform=" translate(-116.31, -18.04)" d="M 114.729 25.9535 C 117.097 25.9535 118.865 24.7839 119.579 23.0154 L 119.807 23.0154 L 119.807 25.6968 L 124 25.6968 L 124 10.4072 L 119.978 10.4072 L 119.807 13.0601 L 119.579 13.0601 C 118.865 11.2915 117.097 10.122 114.729 10.122 C 111.078 10.122 108.625 12.7748 108.625 18.052 C 108.625 23.3006 111.078 25.9535 114.729 25.9535 Z M 116.327 22.559 C 114.273 22.559 112.904 21.1327 112.904 18.052 C 112.904 14.9427 114.273 13.5165 116.327 13.5165 C 118.666 13.5165 119.75 15.3421 119.75 17.3103 L 119.75 18.7651 C 119.75 20.7334 118.666 22.559 116.327 22.559 Z" stroke-linecap="round" />
</g>
		<g transform="matrix(1 0 0 1 -45.48 0)"  >
<path style="stroke: none; stroke-width: 1; stroke-dasharray: none; stroke-linecap: butt; stroke-dashoffset: 0; stroke-linejoin: miter; stroke-miterlimit: 4; fill: rgb(246,228,88); fill-rule: nonzero; opacity: 1;" vector-effect="non-scaling-stroke"  transform=" translate(-16.52, -17)" d="M 0 4.12886 C 0 2.01551 1.71321 0.302307 3.82656 0.302307 L 29.221 0.302307 C 31.3343 0.302307 33.0475 2.01551 33.0475 4.12886 L 33.0475 29.8711 C 33.0475 31.9845 31.3343 33.6977 29.221 33.6977 L 3.82656 33.6977 C 1.71321 33.6977 0 31.9845 0 29.8711 L 0 4.12886 Z" stroke-linecap="round" />
</g>
		<g transform="matrix(1 0 0 1 -45.15 0)"  >
<path style="stroke: none; stroke-width: 1; stroke-dasharray: none; stroke-linecap: butt; stroke-dashoffset: 0; stroke-linejoin: miter; stroke-miterlimit: 4; fill: rgb(0,0,0); fill-rule: nonzero; opacity: 1;" vector-effect="non-scaling-stroke"  transform=" translate(-16.85, -17)" d="M 21.1783 7.76704 C 19.355 7.24329 17.4952 7.17211 15.6 7.34161 C 14.5394 7.45181 13.5198 7.66234 12.5363 8.03177 C 10.4105 8.83028 8.81442 10.2132 7.86268 12.2955 C 7.18036 13.7883 6.93376 15.374 6.90806 17.0011 C 6.8809 18.7205 7.09638 20.4162 7.43877 22.0974 C 7.74912 23.6212 8.16242 25.1152 8.75268 26.5574 C 8.80876 26.6944 8.87861 26.7406 9.02829 26.7403 C 10.8951 26.7363 12.762 26.7363 14.6289 26.7363 C 15.1815 26.7363 15.7342 26.7363 16.2869 26.7362 C 16.3292 26.7362 16.3715 26.7339 16.4202 26.7312 C 16.445 26.7299 16.4715 26.7284 16.5005 26.7271 C 16.4893 26.7004 16.4793 26.6759 16.4698 26.6529 C 16.4514 26.6077 16.4353 26.5684 16.4173 26.5299 C 16.2823 26.2411 16.1445 25.9536 16.0067 25.666 C 15.7078 25.0422 15.409 24.4184 15.1387 23.7824 C 14.3188 21.8537 13.691 19.8678 13.4994 17.7657 C 13.4149 16.8382 13.4266 15.916 13.684 15.0122 C 13.9781 13.9791 14.6093 13.2498 15.6558 12.9449 C 16.6168 12.665 17.5912 12.6668 18.5469 12.9759 C 19.3999 13.2517 19.956 13.8344 20.1926 14.7068 C 20.3743 15.3768 20.3742 16.054 20.2368 16.7295 C 20.1309 17.2495 19.9179 17.7241 19.5344 18.1037 C 18.8464 18.7847 17.9873 18.9413 17.0654 18.8891 C 16.9014 18.8798 16.7379 18.8619 16.5694 18.8433 C 16.4905 18.8347 16.4105 18.8259 16.3288 18.8178 C 16.3311 18.8439 16.3324 18.8679 16.3337 18.8904 C 16.336 18.9347 16.3381 18.9731 16.3472 19.0098 C 16.3865 19.1677 16.424 19.3262 16.4614 19.4847 C 16.5516 19.8665 16.6418 20.2483 16.7577 20.6221 C 16.9855 21.3561 17.2502 22.0725 17.5504 22.7719 C 19.6902 22.6049 21.661 22.073 23.7528 20.8173 C 23.7842 20.7975 23.8128 20.7796 23.8414 20.7618 C 24.7399 20.2024 25.4671 19.4768 25.9686 18.5398 C 26.7808 17.0224 26.9391 15.3997 26.6978 13.7248 C 26.4488 11.9962 25.6731 10.5453 24.3377 9.40723 C 23.4116 8.61786 22.3406 8.10091 21.1783 7.76704 Z" stroke-linecap="round" />
</g>
</g>
</g>
</svg>